<svg xmlns="http://www.w3.org/2000/svg" viewBox="0 0 282.15 86.8"><g id="Layer_2" data-name="Layer 2"><g id="Layer_1-2" data-name="Layer 1"><path d="M55.39,32.7H34a12.79,12.79,0,0,1-2.6-8,14.67,14.67,0,0,1,3.4-9.4,18.16,18.16,0,0,0,1.1,4.6,7,7,0,0,0,2.3,2.8,18.9,18.9,0,0,1-.9-8.2,18.9,18.9,0,0,1,3.5-7.6s-1.1,4.1-.3,7a8.06,8.06,0,0,0,3.4,4.3,22.7,22.7,0,0,1-1.5-10.3A14.63,14.63,0,0,1,45.69,0a27.81,27.81,0,0,0,3,8.8,48.74,48.74,0,0,0,7.3,9s3.6,4,3.4,8.4c-.1,3.9-4,6.6-4,6.5" style="fill:#e20613"/><path d="M58,39.7H32.79S31,39.2,31,37.6c0-2.2,1.8-2,1.8-2H58s1.8-.2,1.8,2c0,1.6-1.8,2.1-1.8,2.1M45.39,59.2a.77.77,0,0,0-.1.3V59a37.15,37.15,0,0,0-3.9-7.7,15,15,0,0,0-5.1-4.6s-1.8-1-1.7-2.6,2.1-1.4,2.1-1.4h17.4s2.1-.2,2.1,1.4a3.18,3.18,0,0,1-1.7,2.6,15,15,0,0,0-5.1,4.6,42.81,42.81,0,0,0-3.9,7.7v.5l-.1-.3m.1,11.7a3.7,3.7,0,1,0,3.7,3.7,3.69,3.69,0,0,0-3.7-3.7h0m44.4,8s-2.4,5.3-8.1,5.6a11.14,11.14,0,0,1-9-4.1,28.22,28.22,0,0,1-4.6,2.3,11.28,11.28,0,0,1-4.1.5s-1.3-.8-3.3.8c-1.3,1,.1,2.8.1,2.8a4.82,4.82,0,0,1-3.5-3.4,5.66,5.66,0,0,1,1-5.3s-1.9-5.1.8-8.4c2.5-3,7.6-3.1,7.6-3.1a4.74,4.74,0,0,0-3.4,3.8c-.3,2.4,2.6,3.5,2.6,3.5a5.43,5.43,0,0,0,4.3-.7,7.66,7.66,0,0,0,2.8-4.4s1.4-5.2-1.1-8.8a9.89,9.89,0,0,0-7.3-4.5s-4.7-1-7.8,2.4c-2.7,3-3.8,8.5-4,9.7A10.32,10.32,0,0,1,38.09,82a10.4,10.4,0,0,1-.2-14.3c-.1-.7-1.2-6.6-4-9.8-3.1-3.4-7.8-2.4-7.8-2.4a10,10,0,0,0-7.3,4.4c-2.5,3.7-1.1,8.8-1.1,8.8a8,8,0,0,0,2.8,4.4,5.43,5.43,0,0,0,4.3.7s2.9-1.1,2.6-3.5A4.74,4.74,0,0,0,24,66.5s5.1,0,7.6,3.1c2.7,3.3.8,8.4.8,8.4a5.66,5.66,0,0,1,1,5.3,4.82,4.82,0,0,1-3.5,3.4s1.3-1.8,0-2.8c-2-1.6-3.2-.8-3.2-.8a11.28,11.28,0,0,1-4.1-.5A19.8,19.8,0,0,1,18,80.3a11.14,11.14,0,0,1-9,4.1c-5.6-.3-8.1-5.6-8.1-5.6s-2.5-6,.9-10.8c3.9-5.4,9-3.1,9-3.1s6,2,4.5,7.8c-1.1,4.4-6.5,4.6-6.5,4.6a.68.68,0,0,0-.8.4H8V78c-.1.5,1,.6,1,.6s6.9.4,7.5-6.1a7.94,7.94,0,0,0-6.2-8.8,19.23,19.23,0,0,1,3.8-10.1,16,16,0,0,1,10-5.7,18.49,18.49,0,0,1,13.1,3.2c5.3,4,7.2,12.6,7.2,12.6h1.5s2-8.7,7.2-12.6A18,18,0,0,1,66.19,48a16,16,0,0,1,10,5.7A18.43,18.43,0,0,1,80,63.8a8,8,0,0,0-6.2,8.8c.5,6.5,7.5,6.1,7.5,6.1s1.1-.1,1-.6a.67.67,0,0,0-.7-.6h-.1s-5.4-.2-6.5-4.6c-1.4-5.9,4.6-7.9,4.6-7.9s5.1-2.3,9,3.1c3.7,4.8,1.3,10.8,1.3,10.8" style="fill:#13448a"/><path d="M106,61.13h-1.92L98.42,50V61.13h-1.6V48.25h2.43l5.18,10.2V48.25H106Z" style="fill:#13448a"/><path d="M113.92,60.1l-.54.41a3.18,3.18,0,0,1-.64.42,4.85,4.85,0,0,1-.84.35,4,4,0,0,1-1.12.12,2.94,2.94,0,0,1-1.14-.23,2.88,2.88,0,0,1-.94-.63,2.79,2.79,0,0,1-.62-1,3.47,3.47,0,0,1,.19-2.94,2.85,2.85,0,0,1,1.34-1.12,6.71,6.71,0,0,1,1.92-.52c.74-.09,1.53-.16,2.39-.21v-.31a2,2,0,0,0-.18-.92,1.2,1.2,0,0,0-.48-.54,2.07,2.07,0,0,0-.76-.27,7,7,0,0,0-.93-.06,6.36,6.36,0,0,0-1.32.17,7.91,7.91,0,0,0-1.52.49h-.1V51.67c.3-.08.73-.18,1.29-.28a9.42,9.42,0,0,1,1.66-.16,8,8,0,0,1,1.68.16,3.28,3.28,0,0,1,1.23.56,2.42,2.42,0,0,1,.78,1,3.94,3.94,0,0,1,.26,1.54v6.61h-1.61Zm0-1.35V56.07l-1.47.14a7.71,7.71,0,0,0-1.43.26,2.54,2.54,0,0,0-1.08.61,1.51,1.51,0,0,0-.42,1.14,1.61,1.61,0,0,0,.47,1.26,2,2,0,0,0,1.36.42,3,3,0,0,0,1.4-.33A6.51,6.51,0,0,0,113.92,58.75Z" style="fill:#13448a"/><path d="M120.74,61.32a2.73,2.73,0,0,1-2.07-.76,3.28,3.28,0,0,1-.75-2.39V52.82h-1.1V51.47h1.1V48.69h1.63v2.78h3v1.35h-3v4.59c0,.49,0,.87,0,1.13a2.08,2.08,0,0,0,.2.75,1,1,0,0,0,.48.45,2.16,2.16,0,0,0,.89.15,2.87,2.87,0,0,0,.77-.11,5.21,5.21,0,0,0,.54-.2h.09V61a7,7,0,0,1-.93.21A5.45,5.45,0,0,1,120.74,61.32Z" style="fill:#13448a"/><path d="M125.52,49.85h-1.85V48.16h1.85Zm-.12,11.28h-1.62V51.47h1.62Z" style="fill:#13448a"/><path d="M135.74,56.3a5.53,5.53,0,0,1-1.17,3.77,4,4,0,0,1-3.14,1.33A3.94,3.94,0,0,1,128.26,60a5.62,5.62,0,0,1-1.15-3.73,5.49,5.49,0,0,1,1.19-3.76,4.34,4.34,0,0,1,6.27,0A5.52,5.52,0,0,1,135.74,56.3Zm-1.68,0a4.63,4.63,0,0,0-.68-2.79,2.54,2.54,0,0,0-3.9,0,4.62,4.62,0,0,0-.69,2.79,4.64,4.64,0,0,0,.69,2.76,2.51,2.51,0,0,0,3.9,0A4.71,4.71,0,0,0,134.06,56.3Z" style="fill:#13448a"/><path d="M145,61.13h-1.63v-5.5a11.84,11.84,0,0,0-.06-1.24,2.76,2.76,0,0,0-.25-.92,1.27,1.27,0,0,0-.55-.55,2.34,2.34,0,0,0-1-.17,2.7,2.7,0,0,0-1.25.32,6.49,6.49,0,0,0-1.26.85v7.21h-1.63V51.47H139v1.07a6.58,6.58,0,0,1,1.44-1A3.35,3.35,0,0,1,142,51.2a2.76,2.76,0,0,1,2.23.94,4,4,0,0,1,.81,2.72Z" style="fill:#13448a"/><path d="M152.69,60.1l-.53.41a3.24,3.24,0,0,1-.65.42,4.47,4.47,0,0,1-.83.35,4.13,4.13,0,0,1-1.13.12,2.89,2.89,0,0,1-1.13-.23,3,3,0,0,1-.95-.63,2.94,2.94,0,0,1-.62-1,3.4,3.4,0,0,1-.23-1.23,3.28,3.28,0,0,1,.42-1.71,2.85,2.85,0,0,1,1.34-1.12A6.8,6.8,0,0,1,150.3,55c.74-.09,1.54-.16,2.39-.21v-.31a2.16,2.16,0,0,0-.17-.92A1.29,1.29,0,0,0,152,53a2,2,0,0,0-.76-.27,7,7,0,0,0-.92-.06,6.45,6.45,0,0,0-1.33.17,8.38,8.38,0,0,0-1.52.49h-.09V51.67c.3-.08.72-.18,1.28-.28a9.53,9.53,0,0,1,1.67-.16,7.81,7.81,0,0,1,1.67.16,3.14,3.14,0,0,1,1.23.56,2.44,2.44,0,0,1,.79,1,4.13,4.13,0,0,1,.26,1.54v6.61h-1.62Zm0-1.35V56.07l-1.47.14a7.88,7.88,0,0,0-1.43.26,2.51,2.51,0,0,0-1.07.61,1.51,1.51,0,0,0-.42,1.14,1.61,1.61,0,0,0,.46,1.26,2,2,0,0,0,1.37.42,2.91,2.91,0,0,0,1.39-.33A5.87,5.87,0,0,0,152.69,58.75Z" style="fill:#13448a"/><path d="M158.25,61.13h-1.62V47.67h1.62Z" style="fill:#13448a"/><path d="M170.81,61.13h-5V59.81h1.64V49.56h-1.64V48.25h5v1.31h-1.65V59.81h1.65Z" style="fill:#13448a"/><path d="M177.82,53.21h-.08a2.28,2.28,0,0,0-.39-.06h-.49a3.17,3.17,0,0,0-1.3.28,4,4,0,0,0-1.23.85v6.86H172.7V51.47h1.63V52.9a7.66,7.66,0,0,1,1.55-1.11,2.86,2.86,0,0,1,1.29-.32h.37l.28,0Z" style="fill:#13448a"/><path d="M184.18,60.1l-.53.41a3.24,3.24,0,0,1-.65.42,4.47,4.47,0,0,1-.83.35,4.13,4.13,0,0,1-1.13.12,2.89,2.89,0,0,1-1.13-.23,3,3,0,0,1-.95-.63,3.1,3.1,0,0,1-.62-1,3.4,3.4,0,0,1-.23-1.23,3.28,3.28,0,0,1,.42-1.71,2.85,2.85,0,0,1,1.34-1.12,6.89,6.89,0,0,1,1.92-.52c.74-.09,1.54-.16,2.39-.21v-.31a2.16,2.16,0,0,0-.17-.92,1.29,1.29,0,0,0-.49-.54,2,2,0,0,0-.76-.27,7,7,0,0,0-.92-.06,6.45,6.45,0,0,0-1.33.17,8.38,8.38,0,0,0-1.52.49h-.09V51.67c.3-.08.73-.18,1.28-.28a9.53,9.53,0,0,1,1.67-.16,7.81,7.81,0,0,1,1.67.16,3.14,3.14,0,0,1,1.23.56,2.44,2.44,0,0,1,.79,1,4.13,4.13,0,0,1,.26,1.54v6.61h-1.62Zm0-1.35V56.07l-1.47.14a7.88,7.88,0,0,0-1.43.26,2.51,2.51,0,0,0-1.07.61,1.51,1.51,0,0,0-.42,1.14,1.61,1.61,0,0,0,.46,1.26,2,2,0,0,0,1.37.42,2.91,2.91,0,0,0,1.39-.33A5.87,5.87,0,0,0,184.18,58.75Z" style="fill:#13448a"/><path d="M195.68,61.13h-1.63v-5.5a11.84,11.84,0,0,0-.06-1.24,2.76,2.76,0,0,0-.25-.92,1.27,1.27,0,0,0-.55-.55,2.34,2.34,0,0,0-1-.17,2.7,2.7,0,0,0-1.25.32,6.49,6.49,0,0,0-1.26.85v7.21h-1.63V51.47h1.63v1.07a6.58,6.58,0,0,1,1.44-1,3.35,3.35,0,0,1,1.49-.34,2.76,2.76,0,0,1,2.23.94,4,4,0,0,1,.81,2.72Z" style="fill:#13448a"/><path d="M199.74,49.85h-1.86V48.16h1.86Zm-.12,11.28H198V51.47h1.62Z" style="fill:#13448a"/><path d="M207.41,60.1l-.53.41a3.24,3.24,0,0,1-.65.42,4.47,4.47,0,0,1-.83.35,4.18,4.18,0,0,1-1.13.12,2.85,2.85,0,0,1-1.13-.23,2.75,2.75,0,0,1-1.57-1.61,3.4,3.4,0,0,1-.23-1.23,3.28,3.28,0,0,1,.42-1.71,2.85,2.85,0,0,1,1.34-1.12A6.71,6.71,0,0,1,205,55c.74-.09,1.54-.16,2.39-.21v-.31a2.16,2.16,0,0,0-.17-.92,1.29,1.29,0,0,0-.49-.54,2.07,2.07,0,0,0-.76-.27,7,7,0,0,0-.92-.06,6.45,6.45,0,0,0-1.33.17,8.14,8.14,0,0,0-1.52.49h-.1V51.67c.3-.08.73-.18,1.29-.28a9.51,9.51,0,0,1,1.66-.16,7.84,7.84,0,0,1,1.68.16A3.14,3.14,0,0,1,208,52a2.53,2.53,0,0,1,.79,1,4.13,4.13,0,0,1,.26,1.54v6.61h-1.62Zm0-1.35V56.07l-1.47.14a7.88,7.88,0,0,0-1.43.26,2.51,2.51,0,0,0-1.07.61,1.51,1.51,0,0,0-.43,1.14,1.61,1.61,0,0,0,.47,1.26,2,2,0,0,0,1.37.42,2.91,2.91,0,0,0,1.39-.33A5.87,5.87,0,0,0,207.41,58.75Z" style="fill:#13448a"/><path d="M218.91,61.13h-1.63v-5.5a11.84,11.84,0,0,0-.06-1.24,2.76,2.76,0,0,0-.25-.92,1.27,1.27,0,0,0-.55-.55,2.34,2.34,0,0,0-1-.17,2.7,2.7,0,0,0-1.25.32,6.49,6.49,0,0,0-1.26.85v7.21h-1.63V51.47h1.63v1.07a6.78,6.78,0,0,1,1.43-1,3.43,3.43,0,0,1,1.5-.34,2.76,2.76,0,0,1,2.23.94,4,4,0,0,1,.81,2.72Z" style="fill:#13448a"/><path d="M105,73.39a4.24,4.24,0,0,1-.3,1.59,3.61,3.61,0,0,1-.82,1.28,4.37,4.37,0,0,1-1.57,1,6.42,6.42,0,0,1-2.27.34H98.53v4.8H96.82V69.51h3.24a8.31,8.31,0,0,1,1.94.19,4.24,4.24,0,0,1,1.42.61,3.56,3.56,0,0,1,1.13,1.25A3.86,3.86,0,0,1,105,73.39Zm-1.78,0a2.76,2.76,0,0,0-.23-1.16,1.93,1.93,0,0,0-.69-.81,3.1,3.1,0,0,0-1-.38A7.2,7.2,0,0,0,100,71H98.53v5.15H99.7a7,7,0,0,0,1.68-.17,2.19,2.19,0,0,0,1.06-.6,2.42,2.42,0,0,0,.56-.85A3.12,3.12,0,0,0,103.17,73.44Z" style="fill:#13448a"/><path d="M110.25,82.62a4.8,4.8,0,0,1-3.59-1.31,5,5,0,0,1-1.27-3.69,5.48,5.48,0,0,1,1.23-3.76,4.14,4.14,0,0,1,3.24-1.4,4.57,4.57,0,0,1,1.59.26,3.08,3.08,0,0,1,1.21.81,3.74,3.74,0,0,1,.8,1.36,6.14,6.14,0,0,1,.27,2v.88H107a3.6,3.6,0,0,0,.85,2.58,3.07,3.07,0,0,0,2.34.89,4.57,4.57,0,0,0,1-.12,5.06,5.06,0,0,0,.93-.31c.3-.14.54-.27.75-.39a4.72,4.72,0,0,0,.5-.35h.09V81.8l-.71.29a6.89,6.89,0,0,1-.76.26c-.32.08-.6.15-.86.2A6.35,6.35,0,0,1,110.25,82.62Zm1.9-6.14a4.62,4.62,0,0,0-.15-1.13,2.4,2.4,0,0,0-.4-.8,1.84,1.84,0,0,0-.73-.56,3.23,3.23,0,0,0-2.21,0,2.65,2.65,0,0,0-.83.56,2.88,2.88,0,0,0-.55.85,3.31,3.31,0,0,0-.24,1.07Z" style="fill:#13448a"/><path d="M118.3,82.58a2.77,2.77,0,0,1-2.07-.75,3.32,3.32,0,0,1-.75-2.4V74.08h-1.1V72.73h1.1V70h1.63v2.78h3v1.35h-3v4.59c0,.49,0,.87,0,1.13a2.08,2.08,0,0,0,.2.75,1,1,0,0,0,.48.45,2.16,2.16,0,0,0,.89.15,2.52,2.52,0,0,0,.77-.11,5.21,5.21,0,0,0,.54-.2h.09V82.3a7,7,0,0,1-.93.21A5.45,5.45,0,0,1,118.3,82.58Z" style="fill:#13448a"/><path d="M126.43,74.48h-.09a1.59,1.59,0,0,0-.39-.07h-.48a3.22,3.22,0,0,0-1.31.28,4.39,4.39,0,0,0-1.23.85v6.86H121.3V72.73h1.63v1.43a7.66,7.66,0,0,1,1.55-1.11,3,3,0,0,1,1.29-.32h.37l.29,0Z" style="fill:#13448a"/><path d="M135.55,77.56a5.51,5.51,0,0,1-1.17,3.77,4,4,0,0,1-3.14,1.33,3.94,3.94,0,0,1-3.17-1.37,5.62,5.62,0,0,1-1.15-3.73,5.51,5.51,0,0,1,1.19-3.76,4.34,4.34,0,0,1,6.27,0A5.52,5.52,0,0,1,135.55,77.56Zm-1.68,0a4.63,4.63,0,0,0-.68-2.79,2.54,2.54,0,0,0-3.9,0,5.93,5.93,0,0,0,0,5.55,2.26,2.26,0,0,0,2,.94,2.3,2.3,0,0,0,1.95-.92A4.63,4.63,0,0,0,133.87,77.56Z" style="fill:#13448a"/><path d="M141.06,82.61a5.08,5.08,0,0,1-1.82-.31,3.62,3.62,0,0,1-1.43-.93,4.06,4.06,0,0,1-.92-1.57,6.76,6.76,0,0,1-.33-2.23,6.22,6.22,0,0,1,.34-2.19,4.76,4.76,0,0,1,.91-1.56,3.75,3.75,0,0,1,1.42-1,4.85,4.85,0,0,1,1.83-.35,5.27,5.27,0,0,1,1.54.23,8.07,8.07,0,0,1,1.32.52v1.82h-.1a3.85,3.85,0,0,0-.44-.33,4.8,4.8,0,0,0-.66-.39,4.31,4.31,0,0,0-.8-.31,3.54,3.54,0,0,0-.88-.13,2.47,2.47,0,0,0-2,1,4.23,4.23,0,0,0-.77,2.7,4.28,4.28,0,0,0,.74,2.67,2.46,2.46,0,0,0,2.06,1,3.57,3.57,0,0,0,1.51-.33,4.63,4.63,0,0,0,1.27-.85h.1v1.83l-.61.27a5.39,5.39,0,0,1-.65.24q-.42.12-.75.18A4,4,0,0,1,141.06,82.61Z" style="fill:#13448a"/><path d="M153,82.39h-1.62v-5.5a11.86,11.86,0,0,0-.07-1.24,2.55,2.55,0,0,0-.24-.92,1.22,1.22,0,0,0-.56-.54,2.18,2.18,0,0,0-1-.18,2.86,2.86,0,0,0-1.25.32,6.49,6.49,0,0,0-1.26.85v7.21H145.4V68.93H147V73.8a6.64,6.64,0,0,1,1.44-1,3.37,3.37,0,0,1,1.5-.35,2.77,2.77,0,0,1,2.23.94,4.09,4.09,0,0,1,.8,2.72Z" style="fill:#13448a"/><path d="M159.47,82.62a4.77,4.77,0,0,1-3.58-1.31,5,5,0,0,1-1.28-3.69,5.43,5.43,0,0,1,1.24-3.76,4.11,4.11,0,0,1,3.23-1.4,4.67,4.67,0,0,1,1.6.26,3.15,3.15,0,0,1,1.21.81,3.72,3.72,0,0,1,.79,1.36,5.85,5.85,0,0,1,.28,2v.88h-6.7a3.65,3.65,0,0,0,.85,2.58,3.11,3.11,0,0,0,2.35.89,4.7,4.7,0,0,0,1-.12,5.63,5.63,0,0,0,.93-.31c.29-.14.54-.27.74-.39a3.87,3.87,0,0,0,.5-.35h.1V81.8l-.71.29a7.68,7.68,0,0,1-.76.26l-.86.2A6.39,6.39,0,0,1,159.47,82.62Zm1.91-6.14a5.12,5.12,0,0,0-.16-1.13,2.08,2.08,0,0,0-.4-.8,1.77,1.77,0,0,0-.73-.56,3.2,3.2,0,0,0-2.2,0,2.54,2.54,0,0,0-.83.56,2.69,2.69,0,0,0-.55.85,3.58,3.58,0,0,0-.25,1.07Z" style="fill:#13448a"/><path d="M175.57,82.39V76.8a11.91,11.91,0,0,0,0-1.23,2.41,2.41,0,0,0-.22-.89,1.06,1.06,0,0,0-.49-.51A1.88,1.88,0,0,0,174,74a2.23,2.23,0,0,0-1.08.31,5.75,5.75,0,0,0-1.19.88c0,.1,0,.22,0,.35s0,.3,0,.48v6.36h-1.62V76.8c0-.44,0-.85-.05-1.23a2.62,2.62,0,0,0-.22-.89,1.15,1.15,0,0,0-.49-.51,1.93,1.93,0,0,0-.87-.16,2.27,2.27,0,0,0-1.11.33,6.06,6.06,0,0,0-1.12.84v7.21H164.6V72.73h1.63V73.8a5.71,5.71,0,0,1,1.27-1,2.83,2.83,0,0,1,1.38-.35,3,3,0,0,1,1.52.39,2.45,2.45,0,0,1,1,1.28,6.61,6.61,0,0,1,1.44-1.25,2.9,2.9,0,0,1,1.52-.42,3.17,3.17,0,0,1,1.14.19,2.27,2.27,0,0,1,.89.63,3.06,3.06,0,0,1,.6,1.1A5.52,5.52,0,0,1,177.2,76v6.36Z" style="fill:#13448a"/><path d="M181.26,71.11h-1.85V69.42h1.85Zm-.12,11.28h-1.62V72.73h1.62Z" style="fill:#13448a"/><path d="M187.37,82.61a5.08,5.08,0,0,1-1.82-.31,3.62,3.62,0,0,1-1.43-.93,4.2,4.2,0,0,1-.93-1.57,7,7,0,0,1-.32-2.23,6.22,6.22,0,0,1,.34-2.19,4.76,4.76,0,0,1,.91-1.56,3.75,3.75,0,0,1,1.42-1,4.85,4.85,0,0,1,1.83-.35,5.27,5.27,0,0,1,1.54.23,8.07,8.07,0,0,1,1.32.52v1.82h-.1a3.85,3.85,0,0,0-.44-.33,4.8,4.8,0,0,0-.66-.39,4.31,4.31,0,0,0-.8-.31,3.54,3.54,0,0,0-.88-.13,2.46,2.46,0,0,0-2,1,4.23,4.23,0,0,0-.77,2.7,4.28,4.28,0,0,0,.74,2.67,2.46,2.46,0,0,0,2.06,1,3.57,3.57,0,0,0,1.51-.33,4.63,4.63,0,0,0,1.27-.85h.1v1.83l-.61.27a4.92,4.92,0,0,1-.66.24,7.13,7.13,0,0,1-.74.18A4,4,0,0,1,187.37,82.61Z" style="fill:#13448a"/><path d="M197.11,81.36l-.54.41a3.18,3.18,0,0,1-.64.42,4.85,4.85,0,0,1-.84.35,4,4,0,0,1-1.12.12,2.77,2.77,0,0,1-1.14-.23,2.73,2.73,0,0,1-.94-.63,2.79,2.79,0,0,1-.62-1,3.47,3.47,0,0,1,.19-2.94,2.9,2.9,0,0,1,1.34-1.12,6.4,6.4,0,0,1,1.92-.51c.74-.1,1.53-.17,2.39-.22v-.31a2,2,0,0,0-.18-.92,1.26,1.26,0,0,0-.48-.54,1.9,1.9,0,0,0-.76-.26,5.65,5.65,0,0,0-.93-.07,6.44,6.44,0,0,0-1.32.17,8.67,8.67,0,0,0-1.52.49h-.1V72.94a12.08,12.08,0,0,1,1.29-.29,9.42,9.42,0,0,1,1.66-.16,8,8,0,0,1,1.68.16,3.28,3.28,0,0,1,1.23.56,2.42,2.42,0,0,1,.78,1,3.94,3.94,0,0,1,.26,1.54v6.61h-1.61Zm0-1.35V77.33l-1.47.14a7.71,7.71,0,0,0-1.43.26,2.51,2.51,0,0,0-1.07.61,1.49,1.49,0,0,0-.43,1.14,1.61,1.61,0,0,0,.47,1.26,2,2,0,0,0,1.37.42,2.94,2.94,0,0,0,1.39-.33A6,6,0,0,0,197.11,80Z" style="fill:#13448a"/><path d="M202.67,82.39H201V68.93h1.63Z" style="fill:#13448a"/><path d="M215.76,82.63a6.22,6.22,0,0,1-2.32-.43,4.85,4.85,0,0,1-1.83-1.26,5.71,5.71,0,0,1-1.2-2.09A9.11,9.11,0,0,1,210,76a8.91,8.91,0,0,1,.41-2.82,5.93,5.93,0,0,1,1.2-2.09,5,5,0,0,1,1.82-1.32,6,6,0,0,1,2.36-.45,7.77,7.77,0,0,1,1.22.09,9.07,9.07,0,0,1,1.05.24,8.23,8.23,0,0,1,.85.33c.29.13.58.27.86.43v2.06h-.13l-.58-.5a6.56,6.56,0,0,0-.87-.58,6,6,0,0,0-1.07-.44,5,5,0,0,0-1.34-.17,3.69,3.69,0,0,0-2.85,1.33,4.76,4.76,0,0,0-.85,1.65,7.78,7.78,0,0,0-.3,2.24,7.24,7.24,0,0,0,.32,2.28,4.82,4.82,0,0,0,.87,1.62,3.48,3.48,0,0,0,1.27,1,3.64,3.64,0,0,0,1.54.33,4.63,4.63,0,0,0,1.37-.19,5.55,5.55,0,0,0,1.13-.45,7.28,7.28,0,0,0,.82-.55q.34-.28.54-.48h.13v2l-.8.38a6.46,6.46,0,0,1-.91.35,8.6,8.6,0,0,1-1,.28A6.92,6.92,0,0,1,215.76,82.63Z" style="fill:#13448a"/><path d="M229.18,77.56A5.51,5.51,0,0,1,228,81.33a4,4,0,0,1-3.13,1.33,3.93,3.93,0,0,1-3.17-1.37,5.62,5.62,0,0,1-1.16-3.73,5.51,5.51,0,0,1,1.19-3.76,4.34,4.34,0,0,1,6.27,0A5.52,5.52,0,0,1,229.18,77.56Zm-1.67,0a4.62,4.62,0,0,0-.69-2.79,2.29,2.29,0,0,0-1.94-.91,2.33,2.33,0,0,0-2,.91,5.93,5.93,0,0,0,0,5.55,2.51,2.51,0,0,0,3.9,0A4.63,4.63,0,0,0,227.51,77.56Z" style="fill:#13448a"/><path d="M241.82,82.39V76.8a11.91,11.91,0,0,0,0-1.23,2.42,2.42,0,0,0-.21-.89,1.12,1.12,0,0,0-.5-.51,1.88,1.88,0,0,0-.86-.16,2.23,2.23,0,0,0-1.08.31,5.75,5.75,0,0,0-1.19.88c0,.1,0,.22,0,.35s0,.3,0,.48v6.36h-1.63V76.8c0-.44,0-.85-.05-1.23a2.62,2.62,0,0,0-.22-.89,1.1,1.1,0,0,0-.49-.51,1.93,1.93,0,0,0-.87-.16,2.21,2.21,0,0,0-1.1.33,5.8,5.8,0,0,0-1.13.84v7.21h-1.63V72.73h1.63V73.8a5.71,5.71,0,0,1,1.27-1,2.83,2.83,0,0,1,1.38-.35,2.94,2.94,0,0,1,1.52.39,2.45,2.45,0,0,1,1,1.28,6.61,6.61,0,0,1,1.44-1.25,2.9,2.9,0,0,1,1.52-.42,3.17,3.17,0,0,1,1.14.19,2.27,2.27,0,0,1,.89.63,3.06,3.06,0,0,1,.6,1.1,5.52,5.52,0,0,1,.21,1.65v6.36Z" style="fill:#13448a"/><path d="M253.84,77.3a6,6,0,0,1-1.15,3.85,3.62,3.62,0,0,1-2.92,1.43,4.41,4.41,0,0,1-1.27-.16,5.14,5.14,0,0,1-1.14-.51v4h-1.62V72.73h1.62v1a5.93,5.93,0,0,1,1.35-.91,3.5,3.5,0,0,1,1.61-.37,3,3,0,0,1,2.59,1.32A6,6,0,0,1,253.84,77.3Zm-1.68.19a5.22,5.22,0,0,0-.52-2.57,1.84,1.84,0,0,0-1.72-.91,3,3,0,0,0-1.33.31,5.46,5.46,0,0,0-1.23.79v5.47a6,6,0,0,0,1.1.43,4.61,4.61,0,0,0,1,.11,2.3,2.3,0,0,0,2-.93A4.37,4.37,0,0,0,252.16,77.49Z" style="fill:#13448a"/><path d="M260.93,81.36l-.54.41a3.18,3.18,0,0,1-.64.42,5.12,5.12,0,0,1-.83.35,4.18,4.18,0,0,1-1.13.12,2.77,2.77,0,0,1-1.14-.23,2.73,2.73,0,0,1-.94-.63,2.79,2.79,0,0,1-.62-1,3.47,3.47,0,0,1,.19-2.94,2.9,2.9,0,0,1,1.34-1.12,6.4,6.4,0,0,1,1.92-.51c.74-.1,1.53-.17,2.39-.22v-.31a2,2,0,0,0-.18-.92,1.26,1.26,0,0,0-.48-.54,1.9,1.9,0,0,0-.76-.26,5.65,5.65,0,0,0-.93-.07,6.44,6.44,0,0,0-1.32.17,8.67,8.67,0,0,0-1.52.49h-.1V72.94a12.08,12.08,0,0,1,1.29-.29,9.42,9.42,0,0,1,1.66-.16,8,8,0,0,1,1.68.16,3.28,3.28,0,0,1,1.23.56,2.53,2.53,0,0,1,.79,1,4.14,4.14,0,0,1,.25,1.54v6.61h-1.61Zm0-1.35V77.33l-1.47.14a7.71,7.71,0,0,0-1.43.26,2.51,2.51,0,0,0-1.07.61,1.49,1.49,0,0,0-.43,1.14,1.61,1.61,0,0,0,.47,1.26,2,2,0,0,0,1.37.42,2.94,2.94,0,0,0,1.39-.33A6,6,0,0,0,260.93,80Z" style="fill:#13448a"/><path d="M272.42,82.39H270.8v-5.5a9.64,9.64,0,0,0-.07-1.24,2.55,2.55,0,0,0-.24-.92,1.22,1.22,0,0,0-.56-.54,2.15,2.15,0,0,0-1-.18,2.86,2.86,0,0,0-1.25.32,6.49,6.49,0,0,0-1.26.85v7.21h-1.62V72.73h1.62V73.8a6.64,6.64,0,0,1,1.44-1,3.37,3.37,0,0,1,1.5-.35,2.77,2.77,0,0,1,2.23.94,4,4,0,0,1,.8,2.72Z" style="fill:#13448a"/><path d="M282.15,72.73,277,86h-1.74l1.73-4-3.51-9.2h1.75l2.64,7.15,2.63-7.15Z" style="fill:#13448a"/></g></g></svg>